<?xml version="1.0" standalone="no"?>
<!DOCTYPE svg PUBLIC "-//W3C//DTD SVG 20010904//EN"
 "http://www.w3.org/TR/2001/REC-SVG-20010904/DTD/svg10.dtd">
<svg version="1.0" xmlns="http://www.w3.org/2000/svg"
 width="128.000000pt" height="128.000000pt" viewBox="0 0 128.000000 128.000000"
 preserveAspectRatio="xMidYMid meet">
<metadata>
Created by potrace 1.14, written by Peter Selinger 2001-2017
</metadata>
<g transform="translate(0.000000,128.000000) scale(0.100000,-0.100000)"
fill="#000000" stroke="none">
<path d="M425 1271 c-61 -26 -95 -121 -61 -173 15 -23 14 -26 -63 -130 l-79
-105 -54 0 c-122 0 -152 -26 -152 -130 0 -52 4 -66 24 -88 13 -14 29 -25 36
-25 21 0 31 -24 38 -85 3 -33 8 -69 10 -80 2 -11 7 -42 10 -70 4 -27 9 -61 11
-75 2 -14 6 -47 9 -75 4 -27 8 -61 11 -75 2 -14 7 -43 10 -65 3 -27 15 -49 35
-68 l30 -27 395 0 c216 0 404 4 417 9 40 15 56 66 83 276 15 110 28 209 30
220 2 11 4 34 4 52 1 18 7 37 14 42 76 61 80 67 85 123 5 61 -14 110 -50 129
-12 6 -52 12 -90 14 -38 1 -73 6 -79 12 -6 6 -41 52 -78 103 -65 89 -67 95
-55 119 17 32 18 78 1 111 -17 34 -74 70 -112 70 -45 0 -96 -38 -114 -84 -13
-33 -13 -44 0 -79 16 -47 67 -87 110 -87 24 0 38 -12 82 -72 29 -40 56 -77 59
-83 4 -7 -97 -10 -295 -9 -166 0 -306 1 -310 2 -4 1 20 38 53 82 50 65 66 80
88 80 40 0 91 36 107 74 24 58 3 131 -47 157 -29 16 -88 21 -113 10z m79 -93
c29 -42 -20 -87 -56 -51 -31 31 -16 64 34 72 4 0 14 -9 22 -21z m338 -2 c17
-26 2 -54 -31 -58 -14 -2 -28 5 -37 17 -12 18 -12 24 2 43 16 24 50 22 66 -2z"/>
</g>
</svg>
